<!-- <svg t="1704693492183" class="icon" viewBox="0 0 1024 1024" version="1.1"
    xmlns="http://www.w3.org/2000/svg" p-id="1645" width="200" height="200">
    <path
        d="M42.666667 505.6c0 51.2 6.4 108.8 23.424 153.6H413.013333c12.8-51.2 17.045333-95.957333
17.045334-147.2a648.405333 648.405333 0 0 0-17.045334-147.2H59.733333C49.066667 409.6 42.666667
454.4 42.666667 505.6z m698.154666-140.8H476.885333c12.757333 44.8 17.024 95.957333 17.024
147.2s-6.4 95.957333-17.024 147.2h263.914667c83.008 0 146.88-63.978667 146.88-147.2
0-83.221333-63.872-147.2-146.88-147.2h0.021333zM95.850667
294.4h300.16c-36.202667-76.8-76.629333-147.2-123.52-204.8-76.586667 51.2-142.549333
121.6-176.597334
204.8h-0.042666z m698.154666 0c76.629333 0 140.48-32 187.306667-83.2C887.68 83.2 730.176 0
553.493333 0c-87.253333 0-157.504 19.2-229.866666 57.6 59.584 64 100.053333 147.2 129.834666
230.4l340.544 6.4zM89.493333 729.6h300.117334c-29.802667 76.8-70.229333 147.2-123.456
198.4-70.229333-44.8-136.213333-115.2-176.64-198.4z m704.533334 0c76.629333 0 140.48 32 187.306666
83.2-93.653333 127.957333-257.536 211.2-427.84 211.2-87.253333 0-157.504-25.6-229.866666-57.6
59.584-63.978667 100.053333-147.2 129.834666-230.4l340.565334-6.4z"
        fill="#5732CD" p-id="1646"></path>
</svg> -->

<svg t="1704694354078" class="icon" viewBox="0 0 1024 1024" version="1.1"
    xmlns="http://www.w3.org/2000/svg" p-id="1652" width="200" height="200">
    <path
        d="M128 507.733333c0 42.666667 4.266667 89.6 19.2 128h290.133333c10.666667-42.666667 14.933333-78.933333 14.933334-123.733333 0-40.533333-4.266667-83.2-14.933334-123.733333H142.933333C134.4 426.666667 128 462.933333 128 507.733333z m582.4-119.466666H490.666667c10.666667 36.266667 14.933333 78.933333 14.933333 123.733333s-4.266667 78.933333-14.933333 123.733333h219.733333c68.266667 0 121.6-53.333333 121.6-123.733333s-53.333333-123.733333-121.6-123.733333zM172.8 330.666667h249.6c-29.866667-64-64-123.733333-102.4-170.666667-64 42.666667-119.466667 100.266667-147.2 170.666667z m580.266667 0c64 0 117.333333-25.6 155.733333-68.266667C832 153.6 701.866667 85.333333 554.666667 85.333333c-72.533333 0-132.266667 17.066667-192 49.066667 49.066667 53.333333 83.2 121.6 108.8 192l281.6 4.266667z m-586.666667 362.666666h249.6c-25.6 64-57.6 121.6-102.4 164.266667-57.6-36.266667-113.066667-93.866667-147.2-164.266667z m588.8 0c64 0 117.333333 25.6 155.733333 68.266667C832 868.266667 695.466667 938.666667 554.666667 938.666667c-72.533333 0-132.266667-21.333333-192-46.933334 49.066667-53.333333 83.2-123.733333 108.8-192l283.733333-6.4z"
        fill="#4D3CFF" p-id="1653"></path>
</svg>