<!-- <svg width="24" height="24" viewBox="0 0 24 24" fill="" xmlns="http://www.w3.org/2000/svg"
data-reactroot="">
<path fill="" d="M12 22C17.5228 22 22 17.5228 22 12C22 6.47715 17.5228 2 12 2C6.47715 2 2 6.47715 2
12C2 17.5228 6.47715 22 12 22Z" undefined="1"></path>
<path stroke-linejoin="round" stroke-linecap="round" stroke-width="2" stroke="" d="M6
12H18"></path>
<path stroke-linejoin="round" stroke-linecap="round" stroke-width="2" stroke="" d="M12 6L6 12L12
18"></path>
</svg> -->

<svg t="1704434930083" class="icon" viewBox="0 0 1024 1024" version="1.1"
    xmlns="http://www.w3.org/2000/svg" p-id="9868" width="200" height="200">
    <path
        d="M474.7264 282.9824v-130.048c-11.8272-54.3744-56.7296-21.248-56.7296-21.248L105.9328 398.7968c-68.5568 47.3088-4.7104 82.7392-4.7104 82.7392l307.3024 264.7552c61.4912 44.9536 66.2016-23.6544 66.2016-23.6544V602.112c312.064-96.9216 439.6544 290.7648 439.6544 290.7648 11.776 21.3504 18.8928 0 18.8928 0C1053.7984 311.3472 474.7264 282.9824 474.7264 282.9824z m0 0"
        fill="#ffffff" p-id="9869"></path>
</svg>