<!-- <?xml version="1.0" standalone="no"?>
<!DOCTYPE svg PUBLIC "-//W3C//DTD SVG 1.1//EN" "http://www.w3.org/Graphics/SVG/1.1/DTD/svg11.dtd">
<svg t="1658241257307" class="icon" viewBox="0 0 1024 1024" version="1.1"
    xmlns="http://www.w3.org/2000/svg" p-id="2257" xmlns:xlink="http://www.w3.org/1999/xlink"
    width="200" height="200">
    <defs>
        <style type="text/css"></style>
    </defs>
    <path
        d="M524.8 938.666667h-4.266667a439.893333 439.893333 0 0 1-313.173333-134.4 446.293333 446.293333 0
0 1-11.093333-597.333334 432.213333 432.213333 0 0 1 170.666666-116.906666 42.666667 42.666667 0 0
1
45.226667 9.386666 42.666667 42.666667 0 0 1 10.24 42.666667 358.4 358.4 0 0 0 82.773333 375.893333
361.386667 361.386667 0 0 0 376.746667 82.773334 42.666667 42.666667 0 0 1 54.186667
55.04A433.493333 433.493333 0 0 1 836.266667 810.666667a438.613333 438.613333 0 0 1-311.466667
128z"
        p-id="2258" fill="#f4ea2a"></path>
</svg> -->

<svg t="1704439339223" class="icon" viewBox="0 0 1024 1024" version="1.1"
    xmlns="http://www.w3.org/2000/svg" p-id="30891" width="200" height="200">
    <path
        d="M398.97 64.12c-0.02 0.02-0.04 0.04-0.05 0.06 0.02 0 0.03-0.01 0.05-0.01v-0.05zM421.78 613.56C273.43 463.81 263.53 225.73 398.92 64.18 166.66 117.34 10.47 335.32 34.82 572.34c33.7 248.91 251.89 430.88 502.8 419.35a501.84 501.84 0 0 0 192.95-43.45 484.233 484.233 0 0 0 159.29-112.16A467.675 467.675 0 0 0 989 672.7c-179.36 116.54-415.76 91.89-567.22-59.14z"
        fill="#f4ea2a" p-id="30892"></path>
    <path
        d="M660.42 278.77a62.323 62.323 0 0 1 37.49 36.01c11.2 28.47 20.09 57.8 26.6 87.7 3.61 15.85 6.86 31.91 10.64 49.36 1.91-9.36 3.35-17.23 5.05-25a727.852 727.852 0 0 1 30.42-108.71 66.904 66.904 0 0 1 43.4-41.11c43.9-14.5 88.9-25.42 134.55-32.66h0.21c0.85-2.71-2.13-1.33-2.82-2.45-18.46-3.78-37.18-7.07-55.68-11.22a495.51 495.51 0 0 1-85.63-25.53 54.54 54.54 0 0 1-29.57-28.14 310.576 310.576 0 0 1-14.68-38.45 983.926 983.926 0 0 1-25.05-103.98l-5 23.67a731.899 731.899 0 0 1-30.74 109.29 68.137 68.137 0 0 1-43.66 41.75 767.933 767.933 0 0 1-101.58 26.97c-11.43 2.39-23.03 4.52-34.57 6.8 11.12 2.87 22.29 4.74 32.92 6.97a693.502 693.502 0 0 1 107.7 28.73zM771.31 516.98a456.433 456.433 0 0 1-60.63-15 35.124 35.124 0 0 1-23.72-22.55 318.968 318.968 0 0 1-9.89-32.71c-2.29-9.52-4.42-18.99-6.54-28.5a44.044 44.044 0 0 0-3.41 10.64 272.599 272.599 0 0 1-17.18 56.91 26.15 26.15 0 0 1-13.67 13.24c-11.1 4.72-22.62 8.38-34.41 10.96l-35.74 7.87c0.9 1.76 2.23 1.76 3.3 1.76 21.98 3.54 43.6 9.1 64.57 16.59 7.77 2.77 14.02 8.7 17.17 16.33 4.91 11.82 8.84 24.02 11.75 36.48 2.45 9.73 4.58 19.57 6.86 29.41a595.34 595.34 0 0 1 17.5-62.06 34.357 34.357 0 0 1 22.71-21.75 434.977 434.977 0 0 1 62.76-15.27l-0.16-0.1c0.91-1.51-0.53-1.72-1.27-2.25z"
        fill="#f4ea2a" p-id="30893"></path>
</svg>