<svg t="1704694878959" class="icon" viewBox="0 0 1024 1024" version="1.1"
    xmlns="http://www.w3.org/2000/svg" p-id="4360" width="200" height="200">
    <path
        d="M753.067 221.867c-2.134 0-8.534-2.134-10.667-2.134C665.6 149.333 565.333 128 524.8 128c-40.533 2.133-98.133 25.6-121.6 64-32 8.533-76.8 17.067-96 46.933-17.067 27.734 42.667 44.8 61.867 51.2 8.533 2.134 49.066 12.8 100.266 34.134l2.134 2.133v2.133c-2.134 8.534-2.134 21.334 4.266 49.067 19.2 55.467 49.067 93.867 66.134 89.6 12.8-4.267 10.666-68.267 17.066-89.6 0 0 2.134-2.133 4.267-2.133h4.267c76.8 49.066 136.533 125.866 157.866 221.866C750.933 704 723.2 812.8 663.467 896c10.666-2.133 17.066-6.4 32-17.067 23.466-17.066 44.8-40.533 61.866-64C881.067 640 893.867 473.6 827.733 330.667c0-2.134-2.133-2.134-2.133-4.267-2.133-19.2 74.667-23.467 93.867-34.133 10.666-19.2-115.2-76.8-166.4-70.4z"
        fill="#00C1DE" p-id="4361"></path>
    <path
        d="M631.467 663.467l55.466-89.6c-6.4-12.8-10.666-25.6-17.066-36.267l-57.6 91.733H501.333l64 104.534-74.666 119.466H341.333l-74.666-121.6 64-104.533H219.733l-74.666-121.6L219.733 384h149.334l44.8 74.667 29.866-46.934c-2.133-2.133-2.133-6.4-4.266-8.533-4.267-17.067-6.4-29.867-6.4-40.533l-19.2 29.866-25.6-42.666h-185.6l-96 157.866 96 155.734h68.266l-42.666 70.4 96 155.733H512l96-155.733-42.667-70.4h66.134z"
        fill="#00C1DE" p-id="4362"></path>
</svg>