<!-- <svg width="24" height="24" viewBox="0 0 24 24" fill="" xmlns="http://www.w3.org/2000/svg"
data-reactroot="">
<path fill="" d="M22 12C22 6.5 17.5 2 12 2C6.5 2 2 6.5 2 12C2 17.5 6.5 22 12 22C13.8 22 15.5 21.5
17 20.6L22 22L20.7 17C21.5 15.5 22 13.8 22 12Z" undefined="1"></path>
<path fill="" d="M15.97 11.5H16.04C17.12 11.5 18 12.38 18 13.47V13.53C18 14.62 17.12 15.5 16.03
15.5H15.96C14.88 15.5 14 14.62 14 13.53V13.46C14 12.38 14.88 11.5 15.97 11.5Z"
undefined="1"></path>
<path fill="" d="M7.97 11.5H8.04C9.12 11.5 10 12.38 10 13.47V13.53C10 14.62 9.12 15.5 8.03
15.5H7.97C6.88 15.5 6 14.62 6 13.53V13.46C6 12.38 6.88 11.5 7.97 11.5Z" undefined="1"></path>
<path stroke-linejoin="round" stroke-linecap="round" stroke-miterlimit="10" stroke-width="2"
stroke="" d="M17 8.5C15.23 8.97 14.07 10.84 14.01 13.27C14 13.33 14 13.4 14 13.47V13.5"></path>
<path stroke-linejoin="round" stroke-linecap="round" stroke-miterlimit="10" stroke-width="2"
stroke="" d="M9 8.5C7.23 8.97 6.07 10.84 6.01 13.27C6 13.33 6 13.4 6 13.47V13.5"></path>
<path stroke-linejoin="round" stroke-linecap="round" stroke-miterlimit="10" stroke-width="2"
stroke="" d="M15.97 11.5H16.04C17.12 11.5 18 12.38 18 13.47V13.53C18 14.62 17.12 15.5 16.03
15.5H15.96C14.88 15.5 14 14.62 14 13.53V13.46C14 12.38 14.88 11.5 15.97 11.5Z"></path>
<path stroke-linejoin="round" stroke-linecap="round" stroke-miterlimit="10" stroke-width="2"
stroke="" d="M7.97 11.5H8.04C9.12 11.5 10 12.38 10 13.47V13.53C10 14.62 9.12 15.5 8.03
15.5H7.97C6.88 15.5 6 14.62 6 13.53V13.46C6 12.38 6.88 11.5 7.97 11.5Z"></path>
</svg> -->

<svg t="1704434639486" class="icon" viewBox="0 0 1024 1024" version="1.1"
    xmlns="http://www.w3.org/2000/svg" p-id="1480" width="200" height="200">
    <path
        d="M512.6 992c-18 0-36.2-1-54.5-3C254.8 966.9 61.4 776.9 35.9 574.2c-18.8-149.5 31-295.9 136.7-401.6C278.2 66.9 424.7 17 574.2 35.9 776.6 61.4 966.5 254.5 989 457.5c12.1 109.5-11.8 215.6-69.1 307.7 12.1 44.1 46 161 46 161 3.2 11.2 0.1 23.3-8.1 31.5s-20.3 11.4-31.5 8.1c0 0-117.2-33.9-160.5-46.3-76.7 47.9-163.2 72.5-253.2 72.5z m-0.3-896c-110.5 0-215.6 43-294.5 121.8C126.2 309.4 83 436.4 99.4 566.2 121.1 738.7 292 906.6 465.1 925.4c97.8 10.7 192.3-11.7 273.5-64.5 10.6-6.9 23.9-8.8 36.4-5.3 19.3 5.5 71.9 20.7 113.3 32.7-12-41.7-27.2-94.9-32.6-115-3.2-12.1-1.1-25 5.8-35.5 52.5-81 74.6-175.5 63.8-273.2-19-172.9-186.9-343.5-359.1-365.2-18-2.3-36.1-3.4-53.9-3.4z m261.2 818.5z m141.7-142.1c0 0.1-0.1 0.1-0.1 0.2 0.1 0 0.1-0.1 0.1-0.2z"
        fill="#ffffff" p-id="1481"></path>
    <path
        d="M336 544c-26.5 0-48-21.5-48-48s21.5-48 48-48 48 21.5 48 48-21.6 48-48 48zM528 544c-26.5 0-48-21.5-48-48s21.5-48 48-48 48 21.5 48 48-21.6 48-48 48zM720 544c-26.5 0-48-21.5-48-48s21.5-48 48-48 48 21.5 48 48-21.6 48-48 48z"
        fill="#ffffff" p-id="1482"></path>
</svg>