<!-- <svg width="32" height="32" viewBox="0 0 24 24" fill="" xmlns="http://www.w3.org/2000/svg"
data-reactroot="">
<path stroke-linejoin="round" stroke-linecap="round" stroke-width="1" stroke="" d="M15.9996
15.2877L15.2925 15.9948L21.2958 21.9981L22.0029 21.291L15.9996 15.2877Z"></path>
<path stroke-linejoin="round" stroke-linecap="round" stroke-width="1" stroke=""
fill="rgba(0,0,0,0)" d="M10 18C14.4183 18 18 14.4183 18 10C18 5.58172 14.4183 2 10 2C5.58172 2 2
5.58172 2 10C2 14.4183 5.58172 18 10 18Z"></path>
</svg> -->

<svg t="1704435143802" class="icon" viewBox="0 0 1024 1024" version="1.1"
    xmlns="http://www.w3.org/2000/svg" p-id="21340" width="200" height="200">
    <path
        d="M174.545455 465.454545c0-18.618182 16.290909-34.909091 34.90909-34.90909s34.909091 16.290909 34.909091 34.90909c0 121.018182 100.072727 221.090909 221.090909 221.09091 18.618182 0 34.909091 16.290909 34.909091 34.90909s-16.290909 34.909091-34.909091 34.909091c-160.581818 0-290.909091-130.327273-290.90909-290.909091zM465.454545 826.181818c200.145455 0 360.727273-160.581818 360.727273-360.727273S665.6 104.727273 465.454545 104.727273 104.727273 265.309091 104.727273 465.454545 265.309091 826.181818 465.454545 826.181818z m323.49091-76.8l172.218181 172.218182c13.963636 13.963636 13.963636 34.909091 0 48.872727-13.963636 13.963636-34.909091 13.963636-48.872727 0l-174.545454-174.545454c-74.472727 60.509091-169.890909 97.745455-272.29091 97.745454C228.072727 896 34.909091 702.836364 34.909091 465.454545S228.072727 34.909091 465.454545 34.909091 896 228.072727 896 465.454545c0 109.381818-39.563636 209.454545-107.054545 283.927273z"
        fill="#ffffff" p-id="21341"></path>
</svg>